<svg width="21" height="21" viewBox="0 0 21 21" fill="none" xmlns="http://www.w3.org/2000/svg">
<g clip-path="url(#clip0_1_193)">
<path d="M1.90625 3.375C1.90625 3.04348 2.03795 2.72554 2.27237 2.49112C2.50679 2.2567 2.82473 2.125 3.15625 2.125H16.9062C17.2378 2.125 17.5557 2.2567 17.7901 2.49112C18.0246 2.72554 18.1562 3.04348 18.1562 3.375V4.625H18.7812C19.2785 4.625 19.7554 4.82254 20.1071 5.17417C20.4587 5.52581 20.6562 6.00272 20.6562 6.5V15.25C20.6562 15.7473 20.4587 16.2242 20.1071 16.5758C19.7554 16.9275 19.2785 17.125 18.7812 17.125H18.0938C17.9497 17.8309 17.5661 18.4652 17.0081 18.9208C16.45 19.3764 15.7517 19.6251 15.0312 19.625H5.03125C4.20245 19.625 3.40759 19.2958 2.82154 18.7097C2.23549 18.1237 1.90625 17.3288 1.90625 16.5V3.375ZM18.1562 15.875H18.7812C18.947 15.875 19.106 15.8092 19.2232 15.6919C19.3404 15.5747 19.4062 15.4158 19.4062 15.25V6.5C19.4062 6.33424 19.3404 6.17527 19.2232 6.05806C19.106 5.94085 18.947 5.875 18.7812 5.875H18.1562V15.875ZM16.9062 3.375H3.15625V16.5C3.15625 16.9973 3.35379 17.4742 3.70542 17.8258C4.05706 18.1775 4.53397 18.375 5.03125 18.375H15.0312C15.5285 18.375 16.0054 18.1775 16.3571 17.8258C16.7087 17.4742 16.9062 16.9973 16.9062 16.5V3.375Z" fill="white"/>
</g>
<defs>
<clipPath id="clip0_1_193">
<rect width="20" height="20" fill="white" transform="translate(0.65625 0.875)"/>
</clipPath>
</defs>
</svg>
