<svg width="20" height="21" viewBox="0 0 20 21" fill="none" xmlns="http://www.w3.org/2000/svg">
<g clip-path="url(#clip0_1_319)">
<path d="M10 0.84375C7.28625 0.84375 6.945 0.85625 5.87875 0.90375C4.8125 0.95375 4.08625 1.12125 3.45 1.36875C2.78262 1.61977 2.17811 2.01353 1.67875 2.5225C1.1701 3.02212 0.776384 3.62655 0.525 4.29375C0.2775 4.92875 0.10875 5.65625 0.06 6.71875C0.0125 7.7875 0 8.1275 0 10.845C0 13.56 0.0125 13.9 0.06 14.9663C0.11 16.0312 0.2775 16.7575 0.525 17.3937C0.78125 18.0513 1.1225 18.6087 1.67875 19.165C2.23375 19.7212 2.79125 20.0637 3.44875 20.3188C4.08625 20.5662 4.81125 20.735 5.87625 20.7837C6.94375 20.8312 7.28375 20.8438 10 20.8438C12.7163 20.8438 13.055 20.8312 14.1225 20.7837C15.1863 20.7337 15.915 20.5662 16.5513 20.3188C17.2182 20.0676 17.8223 19.6738 18.3212 19.165C18.8775 18.6087 19.2188 18.0513 19.475 17.3937C19.7213 16.7575 19.89 16.0312 19.94 14.9663C19.9875 13.9 20 13.56 20 10.8438C20 8.1275 19.9875 7.7875 19.94 6.72C19.89 5.65625 19.7213 4.92875 19.475 4.29375C19.2237 3.62653 18.8299 3.02209 18.3212 2.5225C17.822 2.01334 17.2175 1.61956 16.55 1.36875C15.9125 1.12125 15.185 0.9525 14.1213 0.90375C13.0538 0.85625 12.715 0.84375 9.9975 0.84375H10.0013H10ZM9.10375 2.64625H10.0013C12.6713 2.64625 12.9875 2.655 14.0413 2.70375C15.0162 2.7475 15.5462 2.91125 15.8988 3.0475C16.365 3.22875 16.6987 3.44625 17.0487 3.79625C17.3988 4.14625 17.615 4.47875 17.7963 4.94625C17.9338 5.2975 18.0963 5.8275 18.14 6.8025C18.1887 7.85625 18.1987 8.1725 18.1987 10.8413C18.1987 13.51 18.1887 13.8275 18.14 14.8812C18.0963 15.8562 17.9325 16.385 17.7963 16.7375C17.6359 17.1717 17.38 17.5643 17.0475 17.8862C16.6975 18.2362 16.365 18.4525 15.8975 18.6338C15.5475 18.7712 15.0175 18.9338 14.0413 18.9788C12.9875 19.0263 12.6713 19.0375 10.0013 19.0375C7.33125 19.0375 7.01375 19.0263 5.96 18.9788C4.985 18.9338 4.45625 18.7712 4.10375 18.6338C3.66937 18.4737 3.27641 18.2182 2.95375 17.8862C2.62094 17.5638 2.36465 17.1708 2.20375 16.7362C2.0675 16.385 1.90375 15.855 1.86 14.88C1.8125 13.8263 1.8025 13.51 1.8025 10.8387C1.8025 8.16875 1.8125 7.85375 1.86 6.8C1.905 5.825 2.0675 5.295 2.205 4.9425C2.38625 4.47625 2.60375 4.1425 2.95375 3.7925C3.30375 3.4425 3.63625 3.22625 4.10375 3.045C4.45625 2.9075 4.985 2.745 5.96 2.7C6.8825 2.6575 7.24 2.645 9.10375 2.64375V2.64625ZM15.3387 4.30625C15.1812 4.30625 15.0251 4.33729 14.8795 4.39759C14.7339 4.4579 14.6017 4.54629 14.4902 4.65772C14.3788 4.76915 14.2904 4.90144 14.2301 5.04703C14.1698 5.19262 14.1388 5.34866 14.1388 5.50625C14.1388 5.66384 14.1698 5.81988 14.2301 5.96547C14.2904 6.11106 14.3788 6.24335 14.4902 6.35478C14.6017 6.46621 14.7339 6.5546 14.8795 6.61491C15.0251 6.67521 15.1812 6.70625 15.3387 6.70625C15.657 6.70625 15.9622 6.57982 16.1873 6.35478C16.4123 6.12973 16.5387 5.82451 16.5387 5.50625C16.5387 5.18799 16.4123 4.88277 16.1873 4.65772C15.9622 4.43268 15.657 4.30625 15.3387 4.30625ZM10.0013 5.70875C9.32009 5.69812 8.64362 5.82311 8.01122 6.07643C7.37883 6.32975 6.80314 6.70634 6.31769 7.18428C5.83223 7.66222 5.4467 8.23196 5.18355 8.86032C4.9204 9.48869 4.78488 10.1631 4.78488 10.8444C4.78488 11.5256 4.9204 12.2001 5.18355 12.8284C5.4467 13.4568 5.83223 14.0265 6.31769 14.5045C6.80314 14.9824 7.37883 15.359 8.01122 15.6123C8.64362 15.8656 9.32009 15.9906 10.0013 15.98C11.3494 15.959 12.6353 15.4086 13.5812 14.4478C14.5272 13.487 15.0574 12.1927 15.0574 10.8444C15.0574 9.49603 14.5272 8.20177 13.5812 7.24094C12.6353 6.28011 11.3494 5.72978 10.0013 5.70875ZM10.0013 7.51C10.8854 7.51 11.7334 7.86123 12.3586 8.48643C12.9838 9.11163 13.335 9.95958 13.335 10.8438C13.335 11.7279 12.9838 12.5759 12.3586 13.2011C11.7334 13.8263 10.8854 14.1775 10.0013 14.1775C9.11709 14.1775 8.26913 13.8263 7.64393 13.2011C7.01873 12.5759 6.6675 11.7279 6.6675 10.8438C6.6675 9.95958 7.01873 9.11163 7.64393 8.48643C8.26913 7.86123 9.11709 7.51 10.0013 7.51Z" fill="white"/>
</g>
<defs>
<clipPath id="clip0_1_319">
<rect width="20" height="20" fill="white" transform="translate(0 0.84375)"/>
</clipPath>
</defs>
</svg>
