<svg width="21" height="21" viewBox="0 0 21 21" fill="none" xmlns="http://www.w3.org/2000/svg">
<g clip-path="url(#clip0_1_212)">
<path d="M3.4375 17.75C3.4375 17.5842 3.50335 17.4253 3.62056 17.3081C3.73777 17.1908 3.89674 17.125 4.0625 17.125H16.5625C16.7283 17.125 16.8872 17.1908 17.0044 17.3081C17.1217 17.4253 17.1875 17.5842 17.1875 17.75C17.1875 17.9158 17.1217 18.0747 17.0044 18.1919C16.8872 18.3092 16.7283 18.375 16.5625 18.375H4.0625C3.89674 18.375 3.73777 18.3092 3.62056 18.1919C3.50335 18.0747 3.4375 17.9158 3.4375 17.75ZM17.8013 4.625L17.8313 4.62625C18.0648 4.64215 18.2931 4.70284 18.5037 4.805C18.6554 4.8756 18.7857 4.98515 18.8812 5.1225C18.965 5.2475 19.0625 5.46875 19.0625 5.875V13.3638L19.0612 13.3938C19.0452 13.6273 18.9845 13.8556 18.8825 14.0663C18.8119 14.2179 18.7023 14.3482 18.565 14.4437C18.44 14.5275 18.2188 14.625 17.8125 14.625H2.82375L2.79375 14.6237C2.56021 14.6077 2.33192 14.547 2.12125 14.445C1.96959 14.3744 1.83934 14.2648 1.74375 14.1275C1.66 14.0025 1.5625 13.7812 1.5625 13.375V5.88625L1.56375 5.85625C1.57965 5.62269 1.64034 5.39438 1.7425 5.18375C1.81315 5.03209 1.92269 4.90184 2.06 4.80625C2.185 4.7225 2.40625 4.625 2.8125 4.625H17.8013ZM17.8125 3.375H2.8125C0.3125 3.375 0.3125 5.875 0.3125 5.875V13.375C0.3125 15.875 2.8125 15.875 2.8125 15.875H17.8125C20.3125 15.875 20.3125 13.375 20.3125 13.375V5.875C20.3125 3.375 17.8125 3.375 17.8125 3.375Z" fill="white"/>
</g>
<defs>
<clipPath id="clip0_1_212">
<rect width="20" height="20" fill="white" transform="translate(0.3125 0.875)"/>
</clipPath>
</defs>
</svg>
