<svg width="168" height="141" fill="none" xmlns="http://www.w3.org/2000/svg"><g clip-path="url(#clip0_1_15)"><path d="M36.6 64.1l-.1-.1s.1 0 .1.1zm0-6.2l15-30.4-17.1-8.3c-4.7-2.3-7.6 0-6.6 5.1l7.6 36.9c.1 1 .5 1.8 1 2.6-1-1.5-1-3.6.1-5.9z" fill="#27AAE1"/><path d="M132.7 19.2l-17.1 8.3 15 30.4c.9 1.9 1.1 3.7.6 5.1.3-.5.5-1.1.6-1.8l7.6-36.9c.9-5.1-2-7.4-6.7-5.1z" fill="#D34D4F"/><path d="M36.5 63.9l-.1-.1c0 .1.1.1.1.1z" fill="#1C75BC"/><path d="M68.5 57.9l15.1-30.5L71.8 3.5c-2.3-4.7-6.1-4.7-8.4 0l-11.8 24-15 30.4c-1.1 2.3-1.1 4.4-.2 5.9l.1.1.1.1c1 1.4 2.8 2.3 5.3 2.3h31.9c-5.2 0-7.6-3.8-5.3-8.4z" fill="#1C75BC"/><path d="M130.5 57.9l-15-30.4-11.8-24c-2.3-4.7-6.1-4.7-8.4 0L83.6 27.3 68.5 57.9c-2.3 4.7.1 8.5 5.3 8.5h51.5c3 0 5.1-1.3 5.8-3.3.5-1.5.4-3.3-.6-5.2z" fill="#2B3990"/><path d="M3.1 113.6c-.9 0-1.6-.3-2.2-1.1-.6-.7-.9-1.5-.9-2.5V84.4c0-1 .3-1.9.9-2.6.6-.7 1.3-1.1 2.2-1.1h38.6c1.2 0 2.3.3 3.4.8s2 1.2 2.8 2.1c.8.9 1.4 2 1.9 3.2.5 1.2.7 2.5.7 4 0 1.3-.2 2.4-.5 3.5-.4 1.1-.8 2-1.4 2.9.6.9 1.1 1.8 1.4 2.9.4 1.1.5 2.2.5 3.4 0 1.4-.2 2.7-.7 3.9-.5 1.2-1.1 2.3-1.9 3.2-.8.9-1.7 1.6-2.8 2.1-1.1.5-2.2.8-3.4.8H3.1v.1zM6.2 88v5.6H42c.6 0 1.2-.3 1.7-.8s.7-1.2.7-2-.2-1.4-.7-2c-.5-.6-1.1-.9-1.7-.9H6.2v.1zm0 18.4H42c.6 0 1.2-.3 1.7-.8.5-.6.7-1.2.7-2s-.2-1.5-.7-2c-.5-.5-1.1-.8-1.7-.8H6.2v5.6zm60.3 7.2c-1.2 0-2.3-.3-3.4-.8s-2-1.2-2.8-2.1c-.8-.9-1.4-2-1.9-3.2-.5-1.2-.7-2.5-.7-3.9V84.4c0-1 .3-1.9.9-2.6.6-.7 1.3-1.1 2.2-1.1.8 0 1.5.3 2.2 1.1.6.7.9 1.6.9 2.6v19.2c0 .8.2 1.4.7 2 .5.6 1.1.8 1.7.8h38.6c.9 0 1.6.4 2.2 1.1.6.7.9 1.6.9 2.6s-.3 1.9-.9 2.6c-.6.7-1.3 1.1-2.2 1.1H66.5v-.2zm56.5-12.8c-1.2 0-2.3-.3-3.3-.8s-1.9-1.2-2.7-2.1c-.8-.9-1.4-2-1.8-3.2-.5-1.2-.7-2.5-.7-3.9s.2-2.7.7-3.9c.5-1.2 1.1-2.3 1.8-3.2.8-.9 1.7-1.6 2.7-2.1 1-.5 2.1-.8 3.3-.8h39.1c.9 0 1.6.3 2.2 1.1.6.7.9 1.6.9 2.6s-.3 1.9-.9 2.6c-.6.7-1.3 1.1-2.2 1.1h-39.2c-.6 0-1.2.3-1.7.8s-.7 1.2-.7 2 .2 1.4.7 2c.5.6 1.1.8 1.7.8h35.6c1.2 0 2.3.3 3.4.8s2 1.2 2.7 2.1c.8.9 1.4 2 1.8 3.2.5 1.2.7 2.5.7 3.9s-.2 2.7-.7 3.9c-.4 1.2-1.1 2.3-1.8 3.2-.8.9-1.7 1.6-2.7 2.1-1.1.5-2.2.8-3.4.8h-39c-.9 0-1.6-.3-2.2-1.1-.6-.7-.9-1.6-.9-2.6s.3-1.9.9-2.6c.6-.7 1.3-1.1 2.2-1.1h39.3c.6 0 1.2-.3 1.7-.8s.7-1.2.7-1.9c0-.8-.2-1.5-.7-2-.5-.6-1-.8-1.7-.8H123v-.1zm-84.2 36.6c-.2.6-.5 1.1-.9 1.5-.4.4-.9.7-1.5 1-.6.2-1.2.4-1.9.4-.6 0-1.1-.1-1.6-.2s-.9-.3-1.2-.5c-.3-.2-.6-.4-.8-.7-.2-.3-.3-.5-.3-.8 0-.4.1-.7.4-1 .2-.3.6-.4 1-.4s.8.1 1.3.3c.5.2 1 .3 1.6.3.4 0 .7-.1 1-.4.3-.3.4-.6.4-1 0-.6-.2-1-.6-1.2-.4-.3-.9-.5-1.5-.7-1.2-.4-2-.9-2.6-1.5-.6-.6-.8-1.4-.8-2.5 0-.6.1-1.2.3-1.8.2-.5.5-1 .9-1.4.4-.4.8-.7 1.4-.9.5-.2 1.1-.3 1.8-.3 1 0 1.8.2 2.4.6.6.4.9.9.9 1.4 0 .4-.1.8-.3 1-.2.2-.5.4-.9.4-.3 0-.7-.1-1.1-.3-.4-.2-.7-.3-1.1-.3-.4 0-.8.1-1 .3-.2.2-.3.5-.3.9 0 .5.2.8.6 1 .4.2.9.4 1.6.6 1.1.4 1.9 1 2.5 1.7.5.7.8 1.5.8 2.6-.2.7-.3 1.3-.5 1.9zm15.7-10.3c0 1-.7 1.5-2 1.5h-2.3v2.6h2c1.3 0 2 .5 2 1.5s-.7 1.5-2 1.5h-2v2.7h2.4c1.3 0 2 .5 2 1.5s-.7 1.5-2 1.5h-3.3c-.8 0-1.3-.2-1.5-.5-.3-.3-.4-.8-.4-1.6v-10c0-.8.1-1.4.4-1.7.3-.4.8-.5 1.6-.5h3.1c1.3 0 2 .5 2 1.5zm9.1 13.1c-.9 0-1.4-.8-1.4-2.3v-10c0-.8.1-1.4.4-1.7.3-.4.8-.5 1.6-.5h2.2c1.5 0 2.7.4 3.5 1.2.8.8 1.2 1.9 1.2 3.2 0 1-.3 1.9-.8 2.6-.5.7-1.2 1.1-2.2 1.3l2.2 2.9c.5.7.8 1.4.8 1.9 0 .4-.1.8-.4 1.1-.3.3-.6.5-1 .5-.3 0-.5-.1-.8-.3-.2-.2-.5-.5-.7-.8l-3.3-4.8v3.6c.1 1.3-.3 2.1-1.3 2.1zm4.1-8.5c.3-.3.5-.8.5-1.3s-.1-1-.4-1.3c-.3-.3-.7-.4-1.3-.4H65v3.5h1.3c.6-.1 1.1-.2 1.4-.5zm12.1-4.6c0-.5.1-.9.4-1.2.3-.3.6-.5 1-.5.3 0 .6.1.8.3.2.2.4.6.6 1.1l2.6 8.2 2.4-8c.2-.6.3-.9.6-1.2.2-.2.5-.4.9-.4s.8.1 1 .4c.2.3.3.7.3 1.1v.5c0 .2-.1.4-.1.6l-3.6 10.8c-.2.5-.4.8-.6 1-.2.2-.5.3-.8.3-.3 0-.6-.1-.8-.3-.2-.2-.4-.5-.5-.9l-3.7-11c-.5-.2-.5-.5-.5-.8zm20.8 13.1c-.9 0-1.4-.8-1.4-2.3v-10.1c0-1.6.5-2.3 1.4-2.3.9 0 1.4.8 1.4 2.3v10.1c0 1.5-.5 2.3-1.4 2.3zm13.6-.5c-.7-.3-1.3-.8-1.9-1.5-.5-.6-.9-1.4-1.2-2.3-.3-.9-.4-1.9-.4-3.1 0-1.1.2-2.1.5-3.1.3-.9.7-1.7 1.3-2.3.5-.6 1.1-1.1 1.9-1.5.7-.3 1.5-.5 2.3-.5.5 0 1 .1 1.5.2.4.1.8.3 1.1.5.3.2.6.4.7.7.2.3.3.5.3.8 0 .4-.1.7-.4 1-.2.3-.5.4-.8.4-.3 0-.7-.1-1.1-.3-.4-.2-.9-.3-1.4-.3-.9 0-1.6.4-2.1 1.2-.5.8-.8 1.9-.8 3.2 0 1.3.3 2.3.8 3.1.6.7 1.3 1.1 2.2 1.1.6 0 1.1-.1 1.5-.4.4-.2.8-.4 1.1-.4.3 0 .5.1.8.4.2.3.4.6.4 1 0 .6-.3 1.2-1 1.6-.7.5-1.6.7-2.8.7-1 .3-1.8.1-2.5-.2zm22.3-12.6c0 1-.7 1.5-2 1.5h-2.3v2.6h2c1.3 0 2 .5 2 1.5s-.7 1.5-2 1.5h-2v2.7h2.4c1.3 0 2 .5 2 1.5s-.7 1.5-2 1.5h-3.3c-.7 0-1.3-.2-1.5-.5-.3-.3-.4-.8-.4-1.6v-10c0-.8.1-1.4.4-1.7.3-.4.8-.5 1.6-.5h3.1c1.3 0 2 .5 2 1.5z" fill="#fff"/></g><defs><clipPath id="clip0_1_15"><path fill="#fff" d="M0 0h167.2v140.3H0z"/></clipPath></defs></svg>