<svg width="168" height="141" viewBox="0 0 168 141" fill="none" xmlns="http://www.w3.org/2000/svg">
<g clip-path="url(#clip0_1_15)">
<path d="M36.6 64.1L36.5 64C36.5 64 36.6 64 36.6 64.1Z" fill="#27AAE1"/>
<path d="M36.6 57.9L51.6 27.5L34.5 19.2C29.8 16.9 26.9 19.2 27.9 24.3L35.5 61.2C35.6 62.2 36 63 36.5 63.8C35.5 62.3 35.5 60.2 36.6 57.9Z" fill="#27AAE1"/>
<path d="M132.7 19.2L115.6 27.5L130.6 57.9C131.5 59.8 131.7 61.6 131.2 63C131.5 62.5 131.7 61.9 131.8 61.2L139.4 24.3C140.3 19.2 137.4 16.9 132.7 19.2Z" fill="#D34D4F"/>
<path d="M36.5 63.9L36.4 63.8C36.4 63.9 36.5 63.9 36.5 63.9Z" fill="#1C75BC"/>
<path d="M68.5 57.9L83.6 27.4L71.8 3.50001C69.5 -1.19999 65.7 -1.19999 63.4 3.50001L51.6 27.5L36.6 57.9C35.5 60.2 35.5 62.3 36.4 63.8L36.5 63.9L36.6 64C37.6 65.4 39.4 66.3 41.9 66.3H73.8C68.6 66.3 66.2 62.5 68.5 57.9Z" fill="#1C75BC"/>
<path d="M130.5 57.9L115.5 27.5L103.7 3.50001C101.4 -1.19999 97.6 -1.19999 95.3 3.50001L83.6 27.3L68.5 57.9C66.2 62.6 68.6 66.4 73.8 66.4H93.4H125.3C128.3 66.4 130.4 65.1 131.1 63.1C131.6 61.6 131.5 59.8 130.5 57.9Z" fill="#2B3990"/>
<path d="M3.1 113.6C2.2 113.6 1.5 113.3 0.9 112.5C0.3 111.8 0 111 0 110V84.4C0 83.4 0.3 82.5 0.9 81.8C1.5 81.1 2.2 80.7 3.1 80.7H41.7C42.9 80.7 44 81 45.1 81.5C46.2 82 47.1 82.7 47.9 83.6C48.7 84.5 49.3 85.6 49.8 86.8C50.3 88 50.5 89.3 50.5 90.8C50.5 92.1 50.3 93.2 50 94.3C49.6 95.4 49.2 96.3 48.6 97.2C49.2 98.1 49.7 99 50 100.1C50.4 101.2 50.5 102.3 50.5 103.5C50.5 104.9 50.3 106.2 49.8 107.4C49.3 108.6 48.7 109.7 47.9 110.6C47.1 111.5 46.2 112.2 45.1 112.7C44 113.2 42.9 113.5 41.7 113.5H3.1V113.6ZM6.2 88V93.6H42C42.6 93.6 43.2 93.3 43.7 92.8C44.2 92.3 44.4 91.6 44.4 90.8C44.4 90 44.2 89.4 43.7 88.8C43.2 88.2 42.6 87.9 42 87.9H6.2V88ZM6.2 106.4H42C42.6 106.4 43.2 106.1 43.7 105.6C44.2 105 44.4 104.4 44.4 103.6C44.4 102.8 44.2 102.1 43.7 101.6C43.2 101.1 42.6 100.8 42 100.8H6.2V106.4Z" fill="white"/>
<path d="M66.5 113.6C65.3 113.6 64.2 113.3 63.1 112.8C62 112.3 61.1 111.6 60.3 110.7C59.5 109.8 58.9 108.7 58.4 107.5C57.9 106.3 57.7 105 57.7 103.6V84.4C57.7 83.4 58 82.5 58.6 81.8C59.2 81.1 59.9 80.7 60.8 80.7C61.6 80.7 62.3 81 63 81.8C63.6 82.5 63.9 83.4 63.9 84.4V103.6C63.9 104.4 64.1 105 64.6 105.6C65.1 106.2 65.7 106.4 66.3 106.4H104.9C105.8 106.4 106.5 106.8 107.1 107.5C107.7 108.2 108 109.1 108 110.1C108 111.1 107.7 112 107.1 112.7C106.5 113.4 105.8 113.8 104.9 113.8H66.5V113.6Z" fill="white"/>
<path d="M123 100.8C121.8 100.8 120.7 100.5 119.7 100C118.7 99.5 117.8 98.8 117 97.9C116.2 97 115.6 95.9 115.2 94.7C114.7 93.5 114.5 92.2 114.5 90.8C114.5 89.4 114.7 88.1 115.2 86.9C115.7 85.7 116.3 84.6 117 83.7C117.8 82.8 118.7 82.1 119.7 81.6C120.7 81.1 121.8 80.8 123 80.8H162.1C163 80.8 163.7 81.1 164.3 81.9C164.9 82.6 165.2 83.5 165.2 84.5C165.2 85.5 164.9 86.4 164.3 87.1C163.7 87.8 163 88.2 162.1 88.2H122.9C122.3 88.2 121.7 88.5 121.2 89C120.7 89.5 120.5 90.2 120.5 91C120.5 91.8 120.7 92.4 121.2 93C121.7 93.6 122.3 93.8 122.9 93.8H158.5C159.7 93.8 160.8 94.1 161.9 94.6C163 95.1 163.9 95.8 164.6 96.7C165.4 97.6 166 98.7 166.4 99.9C166.9 101.1 167.1 102.4 167.1 103.8C167.1 105.2 166.9 106.5 166.4 107.7C166 108.9 165.3 110 164.6 110.9C163.8 111.8 162.9 112.5 161.9 113C160.8 113.5 159.7 113.8 158.5 113.8H119.5C118.6 113.8 117.9 113.5 117.3 112.7C116.7 112 116.4 111.1 116.4 110.1C116.4 109.1 116.7 108.2 117.3 107.5C117.9 106.8 118.6 106.4 119.5 106.4H158.8C159.4 106.4 160 106.1 160.5 105.6C161 105.1 161.2 104.4 161.2 103.7C161.2 102.9 161 102.2 160.5 101.7C160 101.1 159.5 100.9 158.8 100.9H123V100.8Z" fill="white"/>
<path d="M38.8 137.4C38.6 138 38.3 138.5 37.9 138.9C37.5 139.3 37 139.6 36.4 139.9C35.8 140.1 35.2 140.3 34.5 140.3C33.9 140.3 33.4 140.2 32.9 140.1C32.4 140 32 139.8 31.7 139.6C31.4 139.4 31.1 139.2 30.9 138.9C30.7 138.6 30.6 138.4 30.6 138.1C30.6 137.7 30.7 137.4 31 137.1C31.2 136.8 31.6 136.7 32 136.7C32.4 136.7 32.8 136.8 33.3 137C33.8 137.2 34.3 137.3 34.9 137.3C35.3 137.3 35.6 137.2 35.9 136.9C36.2 136.6 36.3 136.3 36.3 135.9C36.3 135.3 36.1 134.9 35.7 134.7C35.3 134.4 34.8 134.2 34.2 134C33 133.6 32.2 133.1 31.6 132.5C31 131.9 30.8 131.1 30.8 130C30.8 129.4 30.9 128.8 31.1 128.2C31.3 127.7 31.6 127.2 32 126.8C32.4 126.4 32.8 126.1 33.4 125.9C33.9 125.7 34.5 125.6 35.2 125.6C36.2 125.6 37 125.8 37.6 126.2C38.2 126.6 38.5 127.1 38.5 127.6C38.5 128 38.4 128.4 38.2 128.6C38 128.8 37.7 129 37.3 129C37 129 36.6 128.9 36.2 128.7C35.8 128.5 35.5 128.4 35.1 128.4C34.7 128.4 34.3 128.5 34.1 128.7C33.9 128.9 33.8 129.2 33.8 129.6C33.8 130.1 34 130.4 34.4 130.6C34.8 130.8 35.3 131 36 131.2C37.1 131.6 37.9 132.2 38.5 132.9C39 133.6 39.3 134.4 39.3 135.5C39.1 136.2 39 136.8 38.8 137.4Z" fill="white"/>
<path d="M54.5 127.1C54.5 128.1 53.8 128.6 52.5 128.6H50.2V131.2H52.2C53.5 131.2 54.2 131.7 54.2 132.7C54.2 133.7 53.5 134.2 52.2 134.2H50.2V136.9H52.6C53.9 136.9 54.6 137.4 54.6 138.4C54.6 139.4 53.9 139.9 52.6 139.9H49.3C48.5 139.9 48 139.7 47.8 139.4C47.5 139.1 47.4 138.6 47.4 137.8V127.8C47.4 127 47.5 126.4 47.8 126.1C48.1 125.7 48.6 125.6 49.4 125.6H52.5C53.8 125.6 54.5 126.1 54.5 127.1Z" fill="white"/>
<path d="M63.6 140.2C62.7 140.2 62.2 139.4 62.2 137.9V127.9C62.2 127.1 62.3 126.5 62.6 126.2C62.9 125.8 63.4 125.7 64.2 125.7H66.4C67.9 125.7 69.1 126.1 69.9 126.9C70.7 127.7 71.1 128.8 71.1 130.1C71.1 131.1 70.8 132 70.3 132.7C69.8 133.4 69.1 133.8 68.1 134L70.3 136.9C70.8 137.6 71.1 138.3 71.1 138.8C71.1 139.2 71 139.6 70.7 139.9C70.4 140.2 70.1 140.4 69.7 140.4C69.4 140.4 69.2 140.3 68.9 140.1C68.7 139.9 68.4 139.6 68.2 139.3L64.9 134.5V138.1C65 139.4 64.6 140.2 63.6 140.2ZM67.7 131.7C68 131.4 68.2 130.9 68.2 130.4C68.2 129.9 68.1 129.4 67.8 129.1C67.5 128.8 67.1 128.7 66.5 128.7H65V132.2H66.3C66.9 132.1 67.4 132 67.7 131.7Z" fill="white"/>
<path d="M79.8 127.1C79.8 126.6 79.9 126.2 80.2 125.9C80.5 125.6 80.8 125.4 81.2 125.4C81.5 125.4 81.8 125.5 82 125.7C82.2 125.9 82.4 126.3 82.6 126.8L85.2 135L87.6 127C87.8 126.4 87.9 126.1 88.2 125.8C88.4 125.6 88.7 125.4 89.1 125.4C89.5 125.4 89.9 125.5 90.1 125.8C90.3 126.1 90.4 126.5 90.4 126.9C90.4 127.1 90.4 127.2 90.4 127.4C90.4 127.6 90.3 127.8 90.3 128L86.7 138.8C86.5 139.3 86.3 139.6 86.1 139.8C85.9 140 85.6 140.1 85.3 140.1C85 140.1 84.7 140 84.5 139.8C84.3 139.6 84.1 139.3 84 138.9L80.3 127.9C79.8 127.7 79.8 127.4 79.8 127.1Z" fill="white"/>
<path d="M100.6 140.2C99.7 140.2 99.2 139.4 99.2 137.9V127.8C99.2 126.2 99.7 125.5 100.6 125.5C101.5 125.5 102 126.3 102 127.8V137.9C102 139.4 101.5 140.2 100.6 140.2Z" fill="white"/>
<path d="M114.2 139.7C113.5 139.4 112.9 138.9 112.3 138.2C111.8 137.6 111.4 136.8 111.1 135.9C110.8 135 110.7 134 110.7 132.8C110.7 131.7 110.9 130.7 111.2 129.7C111.5 128.8 111.9 128 112.5 127.4C113 126.8 113.6 126.3 114.4 125.9C115.1 125.6 115.9 125.4 116.7 125.4C117.2 125.4 117.7 125.5 118.2 125.6C118.6 125.7 119 125.9 119.3 126.1C119.6 126.3 119.9 126.5 120 126.8C120.2 127.1 120.3 127.3 120.3 127.6C120.3 128 120.2 128.3 119.9 128.6C119.7 128.9 119.4 129 119.1 129C118.8 129 118.4 128.9 118 128.7C117.6 128.5 117.1 128.4 116.6 128.4C115.7 128.4 115 128.8 114.5 129.6C114 130.4 113.7 131.5 113.7 132.8C113.7 134.1 114 135.1 114.5 135.9C115.1 136.6 115.8 137 116.7 137C117.3 137 117.8 136.9 118.2 136.6C118.6 136.4 119 136.2 119.3 136.2C119.6 136.2 119.8 136.3 120.1 136.6C120.3 136.9 120.5 137.2 120.5 137.6C120.5 138.2 120.2 138.8 119.5 139.2C118.8 139.7 117.9 139.9 116.7 139.9C115.7 140.2 114.9 140 114.2 139.7Z" fill="white"/>
<path d="M136.5 127.1C136.5 128.1 135.8 128.6 134.5 128.6H132.2V131.2H134.2C135.5 131.2 136.2 131.7 136.2 132.7C136.2 133.7 135.5 134.2 134.2 134.2H132.2V136.9H134.6C135.9 136.9 136.6 137.4 136.6 138.4C136.6 139.4 135.9 139.9 134.6 139.9H131.3C130.6 139.9 130 139.7 129.8 139.4C129.5 139.1 129.4 138.6 129.4 137.8V127.8C129.4 127 129.5 126.4 129.8 126.1C130.1 125.7 130.6 125.6 131.4 125.6H134.5C135.8 125.6 136.5 126.1 136.5 127.1Z" fill="white"/>
</g>
<defs>
<clipPath id="clip0_1_15">
<rect width="167.2" height="140.3" fill="white"/>
</clipPath>
</defs>
</svg>
