<svg width="16" height="27" viewBox="0 0 16 27" fill="none" xmlns="http://www.w3.org/2000/svg">
<path d="M1.29196 0.792018C1.38485 0.698891 1.4952 0.625005 1.61669 0.574593C1.73818 0.52418 1.86842 0.49823 1.99996 0.49823C2.13149 0.49823 2.26173 0.52418 2.38322 0.574593C2.50471 0.625005 2.61506 0.698891 2.70796 0.792018L14.708 12.792C14.8011 12.8849 14.875 12.9953 14.9254 13.1168C14.9758 13.2382 15.0017 13.3685 15.0017 13.5C15.0017 13.6316 14.9758 13.7618 14.9254 13.8833C14.875 14.0048 14.8011 14.1151 14.708 14.208L2.70796 26.208C2.52018 26.3958 2.26551 26.5013 1.99996 26.5013C1.7344 26.5013 1.47973 26.3958 1.29196 26.208C1.10418 26.0202 0.998693 25.7656 0.998693 25.5C0.998693 25.2345 1.10418 24.9798 1.29196 24.792L12.586 13.5L1.29196 2.20802C1.19883 2.11513 1.12494 2.00478 1.07453 1.88329C1.02412 1.76179 0.998169 1.63155 0.998169 1.50002C0.998169 1.36848 1.02412 1.23824 1.07453 1.11675C1.12494 0.99526 1.19883 0.884909 1.29196 0.792018Z" fill="white"/>
</svg>
