<svg width="20" height="21" viewBox="0 0 20 21" fill="none" xmlns="http://www.w3.org/2000/svg">
<path fill-rule="evenodd" clip-rule="evenodd" d="M2.35637 0.701189C2.57508 0.4828 2.83772 0.313387 3.12686 0.204177C3.41601 0.0949666 3.72506 0.0484528 4.03354 0.0677181C4.34202 0.0869833 4.64288 0.171588 4.91619 0.315924C5.1895 0.460261 5.42902 0.661035 5.61887 0.904939L7.86262 3.78744C8.27387 4.31619 8.41887 5.00494 8.25637 5.65494L7.57262 8.39244C7.53726 8.53423 7.53917 8.68274 7.57816 8.82358C7.61715 8.96441 7.69188 9.09277 7.79512 9.19619L10.8664 12.2674C10.9699 12.3709 11.0985 12.4457 11.2396 12.4847C11.3806 12.5237 11.5294 12.5255 11.6714 12.4899L14.4076 11.8062C14.7284 11.726 15.0632 11.7198 15.3867 11.788C15.7102 11.8562 16.014 11.9971 16.2751 12.1999L19.1576 14.4424C20.1939 15.2487 20.2889 16.7799 19.3614 17.7062L18.0689 18.9987C17.1439 19.9237 15.7614 20.3299 14.4726 19.8762C11.1741 18.7156 8.17921 16.8272 5.71012 14.3512C3.23423 11.8825 1.34588 8.88801 0.185116 5.58994C-0.267384 4.30244 0.138866 2.91869 1.06387 1.99369L2.35637 0.701189Z" fill="#DC3545"/>
</svg>
