<svg width="16" height="27" viewBox="0 0 16 27" fill="none" xmlns="http://www.w3.org/2000/svg">
<path d="M14.708 0.792018C14.8011 0.884909 14.875 0.99526 14.9254 1.11675C14.9758 1.23824 15.0018 1.36848 15.0018 1.50002C15.0018 1.63155 14.9758 1.76179 14.9254 1.88329C14.875 2.00478 14.8011 2.11513 14.708 2.20802L3.414 13.5L14.708 24.792C14.8958 24.9798 15.0013 25.2345 15.0013 25.5C15.0013 25.7656 14.8958 26.0202 14.708 26.208C14.5202 26.3958 14.2656 26.5013 14 26.5013C13.7345 26.5013 13.4798 26.3958 13.292 26.208L1.292 14.208C1.19888 14.1151 1.12499 14.0048 1.07458 13.8833C1.02416 13.7618 0.998215 13.6316 0.998215 13.5C0.998215 13.3685 1.02416 13.2382 1.07458 13.1168C1.12499 12.9953 1.19888 12.8849 1.292 12.792L13.292 0.792018C13.3849 0.698891 13.4952 0.625005 13.6167 0.574593C13.7382 0.52418 13.8685 0.49823 14 0.49823C14.1315 0.49823 14.2618 0.52418 14.3833 0.574593C14.5048 0.625005 14.6151 0.698891 14.708 0.792018Z" fill="white"/>
</svg>
