<svg width="21" height="21" viewBox="0 0 21 21" fill="none" xmlns="http://www.w3.org/2000/svg">
<g clip-path="url(#clip0_1_202)">
<path d="M20.2143 8.51877C20.2772 8.45772 20.3261 8.38378 20.3576 8.30203C20.3891 8.22028 20.4026 8.13267 20.397 8.04523C20.3914 7.95779 20.3669 7.8726 20.3253 7.79552C20.2836 7.71845 20.2257 7.65132 20.1556 7.59877C17.4906 5.6612 14.2792 4.61992 10.9843 4.62502C7.5581 4.62502 4.3881 5.72752 1.8131 7.59877C1.7429 7.65123 1.68492 7.71828 1.64313 7.7953C1.60134 7.87233 1.57675 7.9575 1.57105 8.04494C1.56535 8.13238 1.57867 8.22002 1.6101 8.30182C1.64152 8.38362 1.69031 8.45764 1.7531 8.51877C1.86234 8.62637 2.00623 8.69171 2.15914 8.70315C2.31204 8.7146 2.46405 8.67141 2.5881 8.58127C5.03203 6.8175 7.97044 5.8704 10.9843 5.87502C14.1181 5.87502 17.0181 6.87752 19.3793 8.58002C19.6356 8.76502 19.9918 8.74252 20.2143 8.51877Z" fill="white"/>
<path d="M17.5206 11.2138C17.585 11.1516 17.6348 11.0759 17.6663 10.9921C17.6977 10.9083 17.7102 10.8186 17.7026 10.7294C17.6951 10.6402 17.6678 10.5539 17.6227 10.4766C17.5776 10.3992 17.5158 10.333 17.4419 10.2825C15.5199 9.034 13.2763 8.37127 10.9844 8.37502C8.60312 8.37502 6.38437 9.07502 4.52687 10.2825C4.45256 10.3327 4.39043 10.3988 4.34505 10.4761C4.29968 10.5535 4.2722 10.64 4.26465 10.7293C4.25709 10.8186 4.26965 10.9085 4.3014 10.9924C4.33315 11.0762 4.38329 11.1518 4.44812 11.2138C4.55463 11.3177 4.6933 11.3824 4.84139 11.3971C4.98948 11.4119 5.13819 11.3759 5.26312 11.295C6.97065 10.2013 8.95662 9.62164 10.9844 9.62502C13.0117 9.62188 14.9972 10.2016 16.7044 11.295C16.9619 11.46 17.3044 11.43 17.5206 11.2138ZM14.7919 13.9425C15.0744 13.66 15.0231 13.1863 14.6669 13.005C13.5262 12.4246 12.2642 12.123 10.9844 12.125C9.65937 12.125 8.40687 12.4425 7.30187 13.005C6.94562 13.1863 6.89437 13.66 7.17687 13.9425L7.19562 13.9613C7.39562 14.1613 7.70437 14.1988 7.95937 14.0738C8.90091 13.6123 9.93584 13.3733 10.9844 13.375C12.0694 13.375 13.0969 13.6263 14.0094 14.075C14.2631 14.2 14.5719 14.1625 14.7719 13.9613L14.7919 13.9425ZM12.3094 16.425C12.5544 16.18 12.5569 15.775 12.2594 15.6C11.8737 15.3705 11.4332 15.2495 10.9844 15.25C10.5356 15.2495 10.095 15.3705 9.70937 15.6C9.41187 15.775 9.41437 16.18 9.65937 16.425L10.5419 17.3075C10.6591 17.4247 10.818 17.4905 10.9837 17.4905C11.1495 17.4905 11.3084 17.4247 11.4256 17.3075L12.3094 16.425Z" fill="white"/>
</g>
<defs>
<clipPath id="clip0_1_202">
<rect width="20" height="20" fill="white" transform="translate(0.984375 0.875)"/>
</clipPath>
</defs>
</svg>
